<mxfile host="app.diagrams.net" modified="2020-08-20T08:03:40.845Z" agent="5.0 (Windows NT 10.0; Win64; x64) AppleWebKit/537.36 (KHTML, like Gecko) Chrome/84.0.4147.125 Safari/537.36 Edg/84.0.522.61" etag="-TeQtawdJtAttMdGBf6b" version="13.6.2" type="github">
  <diagram id="ZO1n8scl0r4KB-HI8wky" name="Page-1">
    <mxGraphModel dx="706" dy="781" grid="1" gridSize="60" guides="1" tooltips="1" connect="1" arrows="1" fold="1" page="1" pageScale="1" pageWidth="827" pageHeight="1169" math="0" shadow="0">
      <root>
        <mxCell id="0" />
        <mxCell id="1" parent="0" />
        <mxCell id="R3wbUKmqV7Xva_OP1enU-2" value="坐标" style="text;html=1;align=center;verticalAlign=middle;resizable=0;points=[];autosize=1;fontSize=30;" vertex="1" parent="1">
          <mxGeometry width="108" height="54" as="geometry" />
        </mxCell>
        <mxCell id="R3wbUKmqV7Xva_OP1enU-3" value="" style="endArrow=classic;html=1;fontSize=30;fillColor=#f8cecc;strokeColor=#b85450;strokeWidth=3;" edge="1" parent="1">
          <mxGeometry width="50" height="50" relative="1" as="geometry">
            <mxPoint x="240" y="240" as="sourcePoint" />
            <mxPoint x="834" y="240" as="targetPoint" />
          </mxGeometry>
        </mxCell>
        <mxCell id="R3wbUKmqV7Xva_OP1enU-4" value="" style="endArrow=classic;html=1;fontSize=30;fillColor=#f8cecc;strokeColor=#b85450;strokeWidth=3;" edge="1" parent="1">
          <mxGeometry width="50" height="50" relative="1" as="geometry">
            <mxPoint x="240" y="239" as="sourcePoint" />
            <mxPoint x="240" y="725" as="targetPoint" />
          </mxGeometry>
        </mxCell>
        <mxCell id="R3wbUKmqV7Xva_OP1enU-5" value="x" style="text;html=1;align=center;verticalAlign=middle;resizable=0;points=[];autosize=1;fontSize=30;" vertex="1" parent="1">
          <mxGeometry x="766" y="199" width="54" height="54" as="geometry" />
        </mxCell>
        <mxCell id="R3wbUKmqV7Xva_OP1enU-6" value="y" style="text;html=1;align=center;verticalAlign=middle;resizable=0;points=[];autosize=1;fontSize=30;" vertex="1" parent="1">
          <mxGeometry x="179" y="702" width="54" height="54" as="geometry" />
        </mxCell>
        <mxCell id="R3wbUKmqV7Xva_OP1enU-9" value="原点" style="text;html=1;align=center;verticalAlign=middle;resizable=0;points=[];autosize=1;fontSize=30;" vertex="1" parent="1">
          <mxGeometry x="125" y="145" width="108" height="54" as="geometry" />
        </mxCell>
        <mxCell id="R3wbUKmqV7Xva_OP1enU-10" value="0,0" style="text;html=1;align=center;verticalAlign=middle;resizable=0;points=[];autosize=1;fontSize=30;" vertex="1" parent="1">
          <mxGeometry x="179" y="199" width="54" height="54" as="geometry" />
        </mxCell>
        <mxCell id="R3wbUKmqV7Xva_OP1enU-12" value="" style="ellipse;whiteSpace=wrap;html=1;aspect=fixed;fontSize=30;fillColor=#fff2cc;strokeColor=#d6b656;" vertex="1" parent="1">
          <mxGeometry x="287" y="286" width="30" height="30" as="geometry" />
        </mxCell>
        <mxCell id="R3wbUKmqV7Xva_OP1enU-13" value="10,10" style="text;html=1;align=center;verticalAlign=middle;resizable=0;points=[];autosize=1;fontSize=30;" vertex="1" parent="1">
          <mxGeometry x="287" y="253" width="120" height="60" as="geometry" />
        </mxCell>
        <mxCell id="R3wbUKmqV7Xva_OP1enU-14" value="" style="ellipse;whiteSpace=wrap;html=1;aspect=fixed;fontSize=30;fillColor=#fff2cc;strokeColor=#d6b656;" vertex="1" parent="1">
          <mxGeometry x="646" y="286" width="30" height="30" as="geometry" />
        </mxCell>
        <mxCell id="R3wbUKmqV7Xva_OP1enU-15" value="70,10" style="text;html=1;align=center;verticalAlign=middle;resizable=0;points=[];autosize=1;fontSize=30;" vertex="1" parent="1">
          <mxGeometry x="646" y="256" width="120" height="60" as="geometry" />
        </mxCell>
        <mxCell id="R3wbUKmqV7Xva_OP1enU-16" value="" style="ellipse;whiteSpace=wrap;html=1;aspect=fixed;fontSize=30;fillColor=#fff2cc;strokeColor=#d6b656;" vertex="1" parent="1">
          <mxGeometry x="467" y="525" width="30" height="30" as="geometry" />
        </mxCell>
        <mxCell id="R3wbUKmqV7Xva_OP1enU-17" value="40,50" style="text;html=1;align=center;verticalAlign=middle;resizable=0;points=[];autosize=1;fontSize=30;" vertex="1" parent="1">
          <mxGeometry x="467" y="525" width="120" height="60" as="geometry" />
        </mxCell>
        <mxCell id="R3wbUKmqV7Xva_OP1enU-18" value="" style="endArrow=none;html=1;strokeWidth=3;fontSize=30;" edge="1" parent="1" source="R3wbUKmqV7Xva_OP1enU-16">
          <mxGeometry width="50" height="50" relative="1" as="geometry">
            <mxPoint x="267" y="363" as="sourcePoint" />
            <mxPoint x="317" y="313" as="targetPoint" />
          </mxGeometry>
        </mxCell>
        <mxCell id="R3wbUKmqV7Xva_OP1enU-19" value="" style="endArrow=none;html=1;strokeWidth=3;fontSize=30;" edge="1" parent="1" target="R3wbUKmqV7Xva_OP1enU-14">
          <mxGeometry width="50" height="50" relative="1" as="geometry">
            <mxPoint x="317" y="303" as="sourcePoint" />
            <mxPoint x="367" y="253" as="targetPoint" />
          </mxGeometry>
        </mxCell>
        <mxCell id="R3wbUKmqV7Xva_OP1enU-20" value="" style="endArrow=none;html=1;strokeWidth=3;fontSize=30;entryX=0;entryY=1;entryDx=0;entryDy=0;" edge="1" parent="1" source="R3wbUKmqV7Xva_OP1enU-16" target="R3wbUKmqV7Xva_OP1enU-14">
          <mxGeometry width="50" height="50" relative="1" as="geometry">
            <mxPoint x="540" y="410" as="sourcePoint" />
            <mxPoint x="590" y="360" as="targetPoint" />
          </mxGeometry>
        </mxCell>
        <mxCell id="R3wbUKmqV7Xva_OP1enU-21" value="array" style="text;html=1;align=center;verticalAlign=middle;resizable=0;points=[];autosize=1;fontSize=30;" vertex="1" parent="1">
          <mxGeometry x="820" y="145" width="120" height="60" as="geometry" />
        </mxCell>
        <mxCell id="R3wbUKmqV7Xva_OP1enU-22" value="var" style="text;html=1;align=center;verticalAlign=middle;resizable=0;points=[];autosize=1;fontSize=30;" vertex="1" parent="1">
          <mxGeometry x="887" y="205" width="60" height="60" as="geometry" />
        </mxCell>
        <mxCell id="R3wbUKmqV7Xva_OP1enU-23" value="three = [1,1,7,1,4,5]" style="text;html=1;align=center;verticalAlign=middle;resizable=0;points=[];autosize=1;fontSize=30;" vertex="1" parent="1">
          <mxGeometry x="947" y="205" width="300" height="60" as="geometry" />
        </mxCell>
        <mxCell id="R3wbUKmqV7Xva_OP1enU-24" value="three[0], three[1]" style="text;html=1;align=center;verticalAlign=middle;resizable=0;points=[];autosize=1;fontSize=30;fillColor=#dae8fc;strokeColor=#6c8ebf;" vertex="1" parent="1">
          <mxGeometry x="257" y="316" width="240" height="60" as="geometry" />
        </mxCell>
        <mxCell id="R3wbUKmqV7Xva_OP1enU-26" value="three[2], three[3]" style="text;html=1;align=center;verticalAlign=middle;resizable=0;points=[];autosize=1;fontSize=30;fillColor=#dae8fc;strokeColor=#6c8ebf;" vertex="1" parent="1">
          <mxGeometry x="587" y="316" width="240" height="60" as="geometry" />
        </mxCell>
        <mxCell id="R3wbUKmqV7Xva_OP1enU-27" value="three[4], three[5]" style="text;html=1;align=center;verticalAlign=middle;resizable=0;points=[];autosize=1;fontSize=30;fillColor=#dae8fc;strokeColor=#6c8ebf;" vertex="1" parent="1">
          <mxGeometry x="414" y="585" width="240" height="60" as="geometry" />
        </mxCell>
        <mxCell id="R3wbUKmqV7Xva_OP1enU-28" value="Object" style="text;html=1;align=center;verticalAlign=middle;resizable=0;points=[];autosize=1;fontSize=30;" vertex="1" parent="1">
          <mxGeometry x="827" y="286" width="120" height="60" as="geometry" />
        </mxCell>
        <mxCell id="R3wbUKmqV7Xva_OP1enU-29" value="var point = {x:1, y:1}" style="text;html=1;align=center;verticalAlign=middle;resizable=0;points=[];autosize=1;fontSize=30;" vertex="1" parent="1">
          <mxGeometry x="887" y="376" width="300" height="60" as="geometry" />
        </mxCell>
        <mxCell id="R3wbUKmqV7Xva_OP1enU-30" value="point.x = 1" style="text;html=1;align=center;verticalAlign=middle;resizable=0;points=[];autosize=1;fontSize=30;" vertex="1" parent="1">
          <mxGeometry x="947" y="436" width="180" height="60" as="geometry" />
        </mxCell>
        <mxCell id="R3wbUKmqV7Xva_OP1enU-31" value="point.y = 1" style="text;html=1;align=center;verticalAlign=middle;resizable=0;points=[];autosize=1;fontSize=30;" vertex="1" parent="1">
          <mxGeometry x="947" y="496" width="180" height="60" as="geometry" />
        </mxCell>
        <mxCell id="R3wbUKmqV7Xva_OP1enU-32" value="var triangle = [{x: 1,y: 1},{x:7, y:1}, {x: 4, y: 5}]" style="text;html=1;align=center;verticalAlign=middle;resizable=0;points=[];autosize=1;fontSize=30;" vertex="1" parent="1">
          <mxGeometry x="707" y="556" width="660" height="60" as="geometry" />
        </mxCell>
        <mxCell id="R3wbUKmqV7Xva_OP1enU-33" value="triangle[0].x" style="text;html=1;align=center;verticalAlign=middle;resizable=0;points=[];autosize=1;fontSize=30;fillColor=#ffe6cc;strokeColor=#d79b00;" vertex="1" parent="1">
          <mxGeometry x="257" y="376" width="180" height="60" as="geometry" />
        </mxCell>
        <mxCell id="R3wbUKmqV7Xva_OP1enU-34" value="triangle[1]" style="text;html=1;align=center;verticalAlign=middle;resizable=0;points=[];autosize=1;fontSize=30;fillColor=#ffe6cc;strokeColor=#d79b00;" vertex="1" parent="1">
          <mxGeometry x="587" y="376" width="180" height="60" as="geometry" />
        </mxCell>
        <mxCell id="R3wbUKmqV7Xva_OP1enU-35" value="triangle[2]" style="text;html=1;align=center;verticalAlign=middle;resizable=0;points=[];autosize=1;fontSize=30;fillColor=#ffe6cc;strokeColor=#d79b00;" vertex="1" parent="1">
          <mxGeometry x="414" y="645" width="180" height="60" as="geometry" />
        </mxCell>
      </root>
    </mxGraphModel>
  </diagram>
</mxfile>
